# xmcd
#
# Track frame offsets:
#	150
#	22580
#	39800
#	61090
#	78400
#	97140
#	111152
#	130137
#	149757
#	167152
#	170920
#
# Disc length: 2321 seconds
#
# Revision: 1
# Processed by: cddbd v1.5.1PL0 Copyright (c) Steve Scherf et al.
# Submitted via: MusicWizard 7.0.2
#
DISCID=8f090f0b
DTITLE=Numarx - Our Time...
DYEAR=1989
DGENRE=Dance - Disco
TTITLE0=Kool Rod
TTITLE1=Girl You Now It's True
TTITLE2=What You Got There
TTITLE3=Material Girl
TTITLE4=It's Our Time
TTITLE5=I'll Remember Your Name (A.B.C.)
TTITLE6=S.Pe.N. (The Confusion)
TTITLE7=The Way I Like It
TTITLE8=Rhymes So Def
TTITLE9=Thank You
TTITLE10=It's Your Time (Reprise)
EXTD=
EXTT0=
EXTT1=
EXTT2=
EXTT3=
EXTT4=
EXTT5=
EXTT6=
EXTT7=
EXTT8=
EXTT9=
EXTT10=
PLAYORDER=
